# xmcd
#
# Track frame offsets:
#   150
#   957
#   16397
#   33767
#   42256
#   53728
#   65391
#   78041
#   90387
#   106632
#   123355
#   153824
#   166791
#   180283
#   197755
#   209915
#
# Disc length: 2978 seconds
#
# Revision: 0
# Processed by: cddbd v1.5.2PL0 Copyright (c) Steve Scherf et al.
# Submitted via: Media_Universe 3.0
#
DISCID=ad0ba010
DTITLE=VV.AA. - Newport Folk Festival 2/3
DYEAR=1900
DGENRE=Blues
TTITLE0=01 robert pete williams - levee camp blues
TTITLE1=02 robert pete williams - midnight boogie
TTITLE2=03 robert pete williams - on my way from texas
TTITLE3=04 mance lipscomb - freddie
TTITLE4=05 mance lipscomb - so different blues
TTITLE5=06 mance lipscomb - god moves on the water
TTITLE6=07 jesse fuller - san francisco bay blues
TTITLE7=08 jesse fuller - i double double do love you
TTITLE8=09 reverend gary davis - samson and delilah
TTITLE9=10 reverend gary davis - i won't be back no more
TTITLE10=11 brownie mcghee and sonny terry - the train is leaving
TTITLE11=12 brownie mcghee and sonny terry - drink muddy water
TTITLE12=13 brownie mcghee and sonny terry - long gone
TTITLE13=14 brownie mcghee and sonny terry - key to the highway
TTITLE14=15 brownie mcghee and sonny terry - my baby done changed
TTITLE15=16 sleepy john estes - clean up at home
EXTD=
EXTT0=
EXTT1=
EXTT2=
EXTT3=
EXTT4=
EXTT5=
EXTT6=
EXTT7=
EXTT8=
EXTT9=
EXTT10=
EXTT11=
EXTT12=
EXTT13=
EXTT14=
EXTT15=
PLAYORDER=
